<?xml version="1.0" encoding="UTF-8" standalone="no"?>
<svg xmlns:dc="http://purl.org/dc/elements/1.1/" xmlns:cc="http://creativecommons.org/ns#" xmlns:rdf="http://www.w3.org/1999/02/22-rdf-syntax-ns#" xmlns:svg="http://www.w3.org/2000/svg" xmlns="http://www.w3.org/2000/svg" xmlns:sodipodi="http://sodipodi.sourceforge.net/DTD/sodipodi-0.dtd" xmlns:inkscape="http://www.inkscape.org/namespaces/inkscape" id="Layer_1" enable-background="new 0 0 792 612" xml:space="preserve" height="100%" viewBox="0 0 507.763 101.705" width="100%" version="1.1" y="0px" x="0px" inkscape:version="0.48.4 r9939" sodipodi:docname="AvonBrandName.svg"><defs id="defs11"/><sodipodi:namedview pagecolor="#ffffff" bordercolor="#666666" borderopacity="1" objecttolerance="10" gridtolerance="10" guidetolerance="10" inkscape:pageopacity="0" inkscape:pageshadow="2" inkscape:window-width="1313" inkscape:window-height="894" id="namedview9" showgrid="false" inkscape:zoom="0.5632549" inkscape:cx="-20.417044" inkscape:cy="50.8525" inkscape:window-x="0" inkscape:window-y="0" inkscape:window-maximized="0" inkscape:current-layer="Layer_1"/><metadata id="metadata3034"><rdf:RDF><cc:Work rdf:about=""><dc:format>image/svg+xml</dc:format><dc:type rdf:resource="http://purl.org/dc/dcmitype/StillImage"/><dc:title/></cc:Work></rdf:RDF></metadata>
<g id="g3036" fill="#000" transform="translate(-142.527,-255.724)" style="fill:#ed008c;fill-opacity:1"><path id="path3022" d="m412.8,306.57,0,0c0-22.853,18.808-41.387,41.098-41.387,22.308,0,41.097,18.534,41.097,41.387,0,22.871-18.789,41.391-41.097,41.391-22.291,0-41.098-18.52-41.098-41.391m41.097-45.85c-24.704,0-45.939,20.529-45.939,45.85,0,25.325,21.235,45.855,45.939,45.855,24.724,0,45.968-20.53,45.968-45.855,0-25.321-21.244-45.85-45.968-45.85" style="fill:#ed008c;fill-opacity:1"/><polygon id="polygon3024" points="280.18,262.71,275.11,262.71,316.79,352.42,317.26,352.42,358.94,262.71,358.94,262.71,353.89,262.71,328.5,317.42,317.04,342.76,305.61,317.42" style="fill:#ed008c;fill-opacity:1"/><polygon id="polygon3026" points="565.84,349.93,570.51,349.93,570.51,306.57,570.26,271.87,644.82,352.42,645.29,352.42,645.29,262.71,640.62,262.71,640.62,306.57,640.87,341.25,566.3,260.72,566.3,260.72,565.84,260.72" style="fill:#ed008c;fill-opacity:1"/><path id="path3028" d="m166.01,321.03,0,0,11.992-25.827,11.421-25.37,11.602,25.424,11.875,25.813-46.89-0.04,0,0zm23.684-60.307h-0.509l-41.658,89.204h5.078l11.614-25.025,50.432-0.02,11.644,25.045h5.055l-41.656-89.204z" style="fill:#ed008c;fill-opacity:1"/></g>
</svg>